<svg width="330" height="32" viewBox="0 0 330 32" fill="none" xmlns="http://www.w3.org/2000/svg">
<path d="M22.32 22.4L23.04 30.48C20.9867 31.3067 18.4533 31.72 15.44 31.72C12.5867 31.72 10.2267 31.4133 8.36 30.8C6.49333 30.16 5.01333 29.2 3.92 27.92C2.82667 26.64 2.05333 25.0133 1.6 23.04C1.17333 21.0667 0.96 18.7333 0.96 16.04C0.96 13.4267 1.16 11.1467 1.56 9.2C1.98667 7.22667 2.73333 5.58667 3.8 4.28C4.86667 2.94666 6.30667 1.94666 8.12 1.28C9.96 0.613333 12.28 0.28 15.08 0.28C15.6933 0.28 16.3733 0.319999 17.12 0.399998C17.8933 0.453332 18.64 0.533332 19.36 0.639997C20.1067 0.746664 20.8 0.879998 21.44 1.04C22.1067 1.17333 22.64 1.33333 23.04 1.52L21.6 8.88C19.4667 8.42666 17.56 8.2 15.88 8.2C14.1467 8.2 12.9467 8.36 12.28 8.68C11.6133 9 11.28 9.64 11.28 10.6V23.16C11.8933 23.2933 12.5067 23.4 13.12 23.48C13.76 23.5333 14.4133 23.56 15.08 23.56C17.7467 23.56 20.16 23.1733 22.32 22.4ZM34.6244 26.24L33.5444 31H23.4244L31.1844 0.999998H46.0244L53.7844 31H43.6644L42.5444 26.24H34.6244ZM38.8644 10.2H38.3444L36.3844 18.6H40.7844L38.8644 10.2ZM54.4422 30.48L55.8022 22.56C58.7355 23.28 61.3889 23.64 63.7622 23.64C64.9622 23.64 66.0155 23.6267 66.9222 23.6C67.8555 23.5467 68.6822 23.4667 69.4022 23.36V20.96L65.0822 20.6C63.1355 20.4133 61.5089 20.0933 60.2022 19.64C58.8955 19.1867 57.8422 18.5733 57.0422 17.8C56.2689 17 55.7089 16.0533 55.3622 14.96C55.0422 13.84 54.8822 12.5333 54.8822 11.04C54.8822 8.98667 55.0955 7.28 55.5222 5.92C55.9489 4.53333 56.6289 3.42667 57.5622 2.6C58.4955 1.74667 59.6955 1.14666 61.1622 0.799998C62.6555 0.453332 64.4689 0.28 66.6022 0.28C70.8422 0.28 74.6822 0.679999 78.1222 1.48L76.9222 9.16C73.9355 8.68 71.5489 8.44 69.7622 8.44C67.9755 8.44 66.4555 8.52 65.2022 8.68V11.04L68.6422 11.36C70.7489 11.5733 72.5089 11.9333 73.9222 12.44C75.3355 12.92 76.4689 13.56 77.3222 14.36C78.2022 15.16 78.8155 16.1067 79.1622 17.2C79.5355 18.2933 79.7222 19.5467 79.7222 20.96C79.7222 22.9867 79.4555 24.6933 78.9222 26.08C78.3889 27.4667 77.7489 28.52 77.0022 29.24C76.3889 29.8267 75.6289 30.2933 74.7222 30.64C73.8155 30.96 72.8555 31.2 71.8422 31.36C70.8289 31.52 69.8022 31.6133 68.7622 31.64C67.7489 31.6933 66.8289 31.72 66.0022 31.72C63.9222 31.72 61.9222 31.6133 60.0022 31.4C58.0822 31.1867 56.2289 30.88 54.4422 30.48ZM93.1375 17.96H92.9375V31H83.3375V0.999998H92.9375V13.24H93.1375C93.1642 12.76 93.2175 12.3333 93.2975 11.96C93.3775 11.56 93.4842 11.2133 93.6175 10.92L98.2975 0.999998H108.698L101.497 15.72L108.938 31H98.5375L93.6175 20.24C93.4842 19.9467 93.3775 19.6133 93.2975 19.24C93.2175 18.8667 93.1642 18.44 93.1375 17.96ZM143.726 22.4L144.446 30.48C142.393 31.3067 139.86 31.72 136.846 31.72C133.993 31.72 131.633 31.4133 129.766 30.8C127.9 30.16 126.42 29.2 125.326 27.92C124.233 26.64 123.46 25.0133 123.006 23.04C122.58 21.0667 122.366 18.7333 122.366 16.04C122.366 13.4267 122.566 11.1467 122.966 9.2C123.393 7.22667 124.14 5.58667 125.206 4.28C126.273 2.94666 127.713 1.94666 129.526 1.28C131.366 0.613333 133.686 0.28 136.486 0.28C137.1 0.28 137.78 0.319999 138.526 0.399998C139.3 0.453332 140.046 0.533332 140.766 0.639997C141.513 0.746664 142.206 0.879998 142.846 1.04C143.513 1.17333 144.046 1.33333 144.446 1.52L143.006 8.88C140.873 8.42666 138.966 8.2 137.286 8.2C135.553 8.2 134.353 8.36 133.686 8.68C133.02 9 132.686 9.64 132.686 10.6V23.16C133.3 23.2933 133.913 23.4 134.526 23.48C135.166 23.5333 135.82 23.56 136.486 23.56C139.153 23.56 141.566 23.1733 143.726 22.4ZM156.031 26.24L154.951 31H144.831L152.591 0.999998H167.431L175.191 31H165.071L163.951 26.24H156.031ZM160.271 10.2H159.751L157.791 18.6H162.191L160.271 10.2ZM198.008 21L203.208 31H192.648L188.728 22.08H186.648V31H177.048V0.999998H192.168C199.048 0.999998 202.488 4.50666 202.488 11.52C202.488 16.32 200.995 19.48 198.008 21ZM188.848 8.68H186.648V14.68H188.848C190.022 14.68 190.862 14.56 191.368 14.32C191.902 14.08 192.168 13.5333 192.168 12.68V10.68C192.168 9.82667 191.902 9.28 191.368 9.04C190.862 8.8 190.022 8.68 188.848 8.68ZM233.22 31H224.18L216.86 20.36C216.726 20.1733 216.62 19.8933 216.54 19.52C216.46 19.1467 216.406 18.6533 216.38 18.04H216.18V31H206.58V0.999998H215.62L222.94 11.64C223.073 11.8267 223.18 12.1067 223.26 12.48C223.34 12.8533 223.393 13.3467 223.42 13.96H223.62V0.999998H233.22V31ZM247.625 31H238.025V0.999998H247.625V31ZM264.679 20.04L268.799 0.999998H278.919L271.479 31H257.479L250.039 0.999998H260.159L264.239 20.04H264.679ZM289.546 26.24L288.466 31H278.346L286.106 0.999998H300.946L308.706 31H298.586L297.466 26.24H289.546ZM293.786 10.2H293.266L291.306 18.6H295.706L293.786 10.2ZM329.764 23.32V31H310.564V0.999998H320.164V23.32H329.764Z" fill="white"/>
</svg>
